HIERARCHY
ROOT Hips
{
  OFFSET 5.84602e-005 68.8428 3.50346
  CHANNELS 6 Xposition Yposition Zposition Zrotation Xrotation Yrotation
  JOINT Spine
  {
    OFFSET 0 8.597 -4.6522
    CHANNELS 3 Zrotation Xrotation Yrotation
    JOINT Spine1
    {
      OFFSET 0 7.8454 0.4098
      CHANNELS 3 Zrotation Xrotation Yrotation
      JOINT Spine2
      {
        OFFSET 0 9.7078 -2.1609
        CHANNELS 3 Zrotation Xrotation Yrotation
        JOINT Neck
        {
          OFFSET 0 21.8761 -0.4549
          CHANNELS 3 Zrotation Xrotation Yrotation
          JOINT Head
          {
            OFFSET 0 12.3537 3.3602
            CHANNELS 3 Zrotation Xrotation Yrotation
            End Site
            {
              OFFSET 0.0001 18.9506 0.5657
            }
          }
        }
        JOINT LeftShoulder
        {
          OFFSET 2.2086 21.1115 7.2329
          CHANNELS 3 Zrotation Xrotation Yrotation
          JOINT LeftArm
          {
            OFFSET 13.1193 3.0282 -4.8998
            CHANNELS 3 Zrotation Xrotation Yrotation
            JOINT LeftForeArm
            {
              OFFSET 27.4081 -0.0973053 -0.2375
              CHANNELS 3 Zrotation Xrotation Yrotation
              JOINT LeftHand
              {
                OFFSET 22.8641 0.0662994 -0.1369
                CHANNELS 3 Zrotation Xrotation Yrotation
                JOINT LeftHandIndex1
                {
                  OFFSET 8.8614 0.775009 2.4612
                  CHANNELS 3 Zrotation Xrotation Yrotation
                  JOINT LeftHandIndex2
                  {
                    OFFSET 3.3146 -0.808304 0.5841
                    CHANNELS 3 Zrotation Xrotation Yrotation
                    JOINT LeftHandIndex3
                    {
                      OFFSET 2.2628 -0.552002 0.3989
                      CHANNELS 3 Zrotation Xrotation Yrotation
                      End Site
                      {
                        OFFSET 1.6102 -0.4807 0.2612
                      }
                    }
                  }
                }
                JOINT LeftHandMiddle1
                {
                  OFFSET 8.9937 0.895004 0.2143
                  CHANNELS 3 Zrotation Xrotation Yrotation
                  JOINT LeftHandMiddle2
                  {
                    OFFSET 4.0984 0.0113983 -0.0242
                    CHANNELS 3 Zrotation Xrotation Yrotation
                    JOINT LeftHandMiddle3
                    {
                      OFFSET 2.2716 0.00689697 -0.0138001
                      CHANNELS 3 Zrotation Xrotation Yrotation
                      End Site
                      {
                        OFFSET 2.0404 -0.1441 0.0027
                      }
                    }
                  }
                }
                JOINT LeftHandRing1
                {
                  OFFSET 8.5234 0.597198 -2.0164
                  CHANNELS 3 Zrotation Xrotation Yrotation
                  JOINT LeftHandRing2
                  {
                    OFFSET 3.7188 -0.188293 -0.2328
                    CHANNELS 3 Zrotation Xrotation Yrotation
                    JOINT LeftHandRing3
                    {
                      OFFSET 2.1191 -0.106598 -0.1332
                      CHANNELS 3 Zrotation Xrotation Yrotation
                      End Site
                      {
                        OFFSET 1.8737 -0.2304 -0.0886
                      }
                    }
                  }
                }
                JOINT LeftHandPinky1
                {
                  OFFSET 7.9094 -0.601089 -3.4825
                  CHANNELS 3 Zrotation Xrotation Yrotation
                  JOINT LeftHandPinky2
                  {
                    OFFSET 2.2874 -0.477005 -0.6314
                    CHANNELS 3 Zrotation Xrotation Yrotation
                    JOINT LeftHandPinky3
                    {
                      OFFSET 1.6774 -0.349396 -0.4633
                      CHANNELS 3 Zrotation Xrotation Yrotation
                      End Site
                      {
                        OFFSET 1.4888 -0.4091 -0.3416
                      }
                    }
                  }
                }
                JOINT LeftHandThumb1
                {
                  OFFSET 1.833 -1.3875 1.3896
                  CHANNELS 3 Zrotation Xrotation Yrotation
                  JOINT LeftHandThumb2
                  {
                    OFFSET 3.4129 -1.121 2.5732
                    CHANNELS 3 Zrotation Xrotation Yrotation
                    JOINT LeftHandThumb3
                    {
                      OFFSET 2.2474 -0.804199 1.6192
                      CHANNELS 3 Zrotation Xrotation Yrotation
                      End Site
                      {
                        OFFSET 1.6527 -0.5689 1.1317
                      }
                    }
                  }
                }
              }
            }
          }
        }
        JOINT RightShoulder
        {
          OFFSET -2.2086 21.1115 7.2329
          CHANNELS 3 Zrotation Xrotation Yrotation
          JOINT RightArm
          {
            OFFSET -13.1216 3.0287 -4.9007
            CHANNELS 3 Zrotation Xrotation Yrotation
            JOINT RightForeArm
            {
              OFFSET -27.4081 -0.0973053 -0.2375
              CHANNELS 3 Zrotation Xrotation Yrotation
              JOINT RightHand
              {
                OFFSET -22.8641 0.0664063 -0.1369
                CHANNELS 3 Zrotation Xrotation Yrotation
                JOINT RightHandIndex1
                {
                  OFFSET -8.8614 0.774994 2.4612
                  CHANNELS 3 Zrotation Xrotation Yrotation
                  JOINT RightHandIndex2
                  {
                    OFFSET -3.3146 -0.808304 0.5841
                    CHANNELS 3 Zrotation Xrotation Yrotation
                    JOINT RightHandIndex3
                    {
                      OFFSET -2.2628 -0.552002 0.3989
                      CHANNELS 3 Zrotation Xrotation Yrotation
                      End Site
                      {
                        OFFSET -1.6102 -0.4807 0.2612
                      }
                    }
                  }
                }
                JOINT RightHandMiddle1
                {
                  OFFSET -8.9937 0.894989 0.2143
                  CHANNELS 3 Zrotation Xrotation Yrotation
                  JOINT RightHandMiddle2
                  {
                    OFFSET -4.0984 0.0113983 -0.0242
                    CHANNELS 3 Zrotation Xrotation Yrotation
                    JOINT RightHandMiddle3
                    {
                      OFFSET -2.2716 0.00691223 -0.0138001
                      CHANNELS 3 Zrotation Xrotation Yrotation
                      End Site
                      {
                        OFFSET -2.0404 -0.1441 0.0027
                      }
                    }
                  }
                }
                JOINT RightHandRing1
                {
                  OFFSET -8.5234 0.597198 -2.0164
                  CHANNELS 3 Zrotation Xrotation Yrotation
                  JOINT RightHandRing2
                  {
                    OFFSET -3.7188 -0.188309 -0.2328
                    CHANNELS 3 Zrotation Xrotation Yrotation
                    JOINT RightHandRing3
                    {
                      OFFSET -2.1191 -0.106598 -0.1332
                      CHANNELS 3 Zrotation Xrotation Yrotation
                      End Site
                      {
                        OFFSET -1.8737 -0.2304 -0.0886
                      }
                    }
                  }
                }
                JOINT RightHandPinky1
                {
                  OFFSET -7.9094 -0.601105 -3.4825
                  CHANNELS 3 Zrotation Xrotation Yrotation
                  JOINT RightHandPinky2
                  {
                    OFFSET -2.2874 -0.477005 -0.6314
                    CHANNELS 3 Zrotation Xrotation Yrotation
                    JOINT RightHandPinky3
                    {
                      OFFSET -1.6774 -0.349396 -0.4633
                      CHANNELS 3 Zrotation Xrotation Yrotation
                      End Site
                      {
                        OFFSET -1.4888 -0.4091 -0.3416
                      }
                    }
                  }
                }
                JOINT RightHandThumb1
                {
                  OFFSET -1.833 -1.38751 1.3896
                  CHANNELS 3 Zrotation Xrotation Yrotation
                  JOINT RightHandThumb2
                  {
                    OFFSET -3.41299 -1.12099 2.5732
                    CHANNELS 3 Zrotation Xrotation Yrotation
                    JOINT RightHandThumb3
                    {
                      OFFSET -2.24741 -0.804108 1.6192
                      CHANNELS 3 Zrotation Xrotation Yrotation
                      End Site
                      {
                        OFFSET -1.6527 -0.5689 1.1317
                      }
                    }
                  }
                }
              }
            }
          }
        }
      }
    }
  }
  JOINT RightUpLeg
  {
    OFFSET -9.1966 3.8861 -0.7581
    CHANNELS 3 Zrotation Xrotation Yrotation
    JOINT RightLeg
    {
      OFFSET -0.7359 -41.0265 0
      CHANNELS 3 Zrotation Xrotation Yrotation
      JOINT RightFoot
      {
        OFFSET 0 -40.2855 0
        CHANNELS 3 Zrotation Xrotation Yrotation
        JOINT RightToeBase
        {
          OFFSET 0 -5.6122 11.7359
          CHANNELS 3 Zrotation Xrotation Yrotation
          End Site
          {
            OFFSET 0 0 7.8731
          }
        }
      }
    }
  }
  JOINT LeftUpLeg
  {
    OFFSET 9.1965 3.8864 -0.7581
    CHANNELS 3 Zrotation Xrotation Yrotation
    JOINT LeftLeg
    {
      OFFSET 0.7359 -41.0268 0
      CHANNELS 3 Zrotation Xrotation Yrotation
      JOINT LeftFoot
      {
        OFFSET 0 -40.2855 0
        CHANNELS 3 Zrotation Xrotation Yrotation
        JOINT LeftToeBase
        {
          OFFSET 0 -5.6122 11.7359
          CHANNELS 3 Zrotation Xrotation Yrotation
          End Site
          {
            OFFSET 0 0 7.8731
          }
        }
      }
    }
  }
}
MOTION
Frames:	4
Frame Time:	0.0333333
5.84602e-005 68.8428 3.50346 0 0 -0 0 0 -0 0 0 -0 0 0 -0 0 0 -0 0 0 -0 0 0 -0 0 0 -0 0 0 -0 0 0 -0 0 0 -0 0 0 -0 0 0 -0 0 0 -0 -0.0146107 -8.87603e-005 -2.63497e-007 2.99804e-018 -2.42657e-020 -1.42182e-022 0 0 -0 -0.0187562 -0.001176 5.858e-005 5.06224e-018 3.88251e-019 1.21329e-020 0 0 -0 -0.012269 -0.00324817 0.000675346 -1.74678e-018 3.88251e-019 -0 0 0 -0 0 0 -0 0 0 -0 0 0 -0 0 0 -0 0 0 -0 0 0 -0 0 0 -0 0 0 -0 0 0 -0 0 0 -0 0.0149955 -9.10982e-005 2.64101e-007 -9.69331e-018 1.21329e-020 -4.7394e-023 0 0 -0 0.0189956 -0.00119102 -5.96516e-005 -5.41541e-019 0 2.42657e-020 0 0 -0 0.0122698 -0.00324857 -0.000673756 -2.00796e-019 0 -1.94126e-019 0 0 -0 0 0 -0 0 0 -0 3.39842 1.33031 -0.0637918 -5.65207e-008 0.834868 -0.000436188 -3.39935 -2.16518 -0.0642563 -8.89002e-024 -1.18485e-023 -1.48106e-024 -3.39844 1.35642 0.0640283 -3.18788e-007 0.782166 -0.000588827 3.39931 -2.13858 0.0634662 1.1399e-023 0 -0 
0.000153941 0.458569 7.26773 -180 -76.2114 -180 -0.0428293 0.884471 -0.155714 -0.083269 1.76905 -0.310822 -0.0832691 1.76901 -0.310822 -1.31756e-005 42.4974 2.7905e-005 0.0156895 9.48354 0.0166736 -24.8213 8.17801 -4.17182 -60.4313 -10.6603 -33.0551 -8.51637 36.7275 0.39432 -44.5395 -63.8175 13.0958 -6.36111e-015 -3.18055e-015 -0 -6.36111e-015 0 -0 -1.27222e-014 1.59028e-015 1.59028e-015 -6.36111e-015 -3.18055e-015 -0 -0.0145937 -8.29644e-005 -1.57683e-006 6.36111e-015 -3.18055e-015 1.59028e-015 -6.36111e-015 -3.18055e-015 -0 -0.0187658 -0.00117965 6.18881e-005 -0 -1.59028e-015 -0 -6.36111e-015 -3.18055e-015 -0 -0.0122798 -0.0032513 0.000676388 -1.90833e-014 -1.59028e-015 1.59028e-015 -6.36111e-015 -3.18055e-015 -0 -6.36111e-015 0 -0 -1.27222e-014 1.59028e-015 1.59028e-015 27.3498 8.01062 5.75834 58.6222 -11.6625 32.2529 7.45182 36.6895 -0.395567 44.2796 -62.6757 -14.7208 3.18055e-015 -3.18055e-015 -3.18055e-015 -3.18055e-015 -3.18055e-015 -3.18055e-015 -3.18055e-015 -1.59028e-015 -0 3.18055e-015 -3.18055e-015 -3.18055e-015 0.0149813 -9.38457e-005 5.05725e-006 1.51734e-007 -1.12176e-006 -8.25429e-007 3.18055e-015 -3.18055e-015 -3.18055e-015 0.0189956 -0.0011974 -6.33084e-005 -1.52102e-007 1.1219e-006 8.25397e-007 3.18055e-015 -3.18055e-015 -3.18055e-015 0.0122562 -0.00325031 -0.000675862 -3.18055e-015 -3.18055e-015 -0 3.18055e-015 -3.18055e-015 -3.18055e-015 -3.18055e-015 -3.18055e-015 -3.18055e-015 -3.18055e-015 -1.59028e-015 -0 -24.5282 -19.1624 -51.6919 -75.1838 53.2864 60.8277 3.94736 15.3685 -11.7888 -0 -3.18055e-015 -0 24.5078 -19.1688 51.6684 75.1366 53.3086 -60.7767 -3.95696 15.3807 11.7734 3.53113e-031 6.36111e-015 -3.18055e-015 
0.000161561 4.71552 7.75821 -180 -83.5498 -180 -0.0369039 0.445634 -0.147596 -0.0726628 0.891389 -0.294917 -0.0726629 0.891371 -0.294917 4.61701e-005 39.9979 -0.000108051 0.0727009 8.64446 0.0762378 -22.5425 8.73989 -2.87674 -57.2702 -9.79912 -31.3132 -8.8101 34.5685 0.367994 -42.6713 -59.9147 11.1254 -4.57889e-006 1.47114e-006 -1.68814e-007 6.36111e-015 -6.36111e-015 4.77083e-015 -4.1876e-006 8.44069e-008 7.35571e-007 -4.57889e-006 1.47114e-006 -1.68814e-007 -0.0146233 -9.65546e-005 -2.10842e-006 -4.18789e-006 8.4311e-008 7.35585e-007 -4.57889e-006 1.47114e-006 -1.68814e-007 -0.018749 -0.0011877 6.30236e-005 -4.57752e-006 1.47126e-006 -1.6853e-007 -4.57889e-006 1.47114e-006 -1.68814e-007 -0.0122565 -0.00324911 0.000675901 -4.18782e-006 8.4288e-008 7.35712e-007 -4.57889e-006 1.47114e-006 -1.68814e-007 6.36111e-015 -6.36111e-015 4.77083e-015 -4.1876e-006 8.44069e-008 7.35571e-007 24.7341 8.56778 4.21926 55.6979 -10.6717 30.6264 7.89336 34.5347 -0.369129 42.5689 -58.9564 -12.4196 -4.92993e-006 2.20784e-006 -3.44296e-006 4.18645e-006 8.1273e-008 -7.43484e-007 -2.46496e-006 1.10392e-006 -1.72148e-006 -4.92993e-006 2.20784e-006 -3.44296e-006 0.0150001 -8.43245e-005 3.37012e-006 -2.46512e-006 1.1037e-006 -1.72162e-006 -4.92993e-006 2.20784e-006 -3.44296e-006 0.018982 -0.00119438 -6.51767e-005 -2.8552e-006 -3.02311e-007 -2.62744e-006 -4.92993e-006 2.20784e-006 -3.44296e-006 0.0122787 -0.00325254 -0.000676945 -2.46515e-006 1.10375e-006 -1.72152e-006 -4.92993e-006 2.20784e-006 -3.44296e-006 4.18645e-006 8.1273e-008 -7.43484e-007 -2.46496e-006 1.10392e-006 -1.72148e-006 -21.9227 -19.8349 -48.5069 -66.9108 52.6345 54.3264 3.55061 14.2828 -11.1662 -1.4256e-006 -4.33482e-007 1.53063e-006 21.9031 -19.8401 48.4849 66.864 52.6517 -54.2746 -3.55889 14.2944 11.1518 -4.38244e-006 4.2793e-007 -2.61359e-006 
0.000168412 4.87381 7.8441 -180 -84.7158 -180 -0.0351479 0.0795823 -0.148249 -0.07009 0.159268 -0.296449 -0.0700901 0.159266 -0.296449 -0.000301252 39.9973 0.00065453 0.127543 8.37869 0.133719 -21.7511 9.73803 -1.89938 -57.9681 -9.37501 -31.5506 -9.57231 34.5857 0.367009 -41.8706 -59.6692 11.323 -2.46017e-006 -1.0996e-006 -1.72475e-006 -4.92035e-006 -2.19919e-006 -3.4495e-006 -0 0 1.59028e-015 -2.46017e-006 -1.0996e-006 -1.72475e-006 -0.0146153 -9.31038e-005 -2.25634e-007 6.36111e-015 1.59028e-015 -1.59028e-015 -2.46017e-006 -1.0996e-006 -1.72475e-006 -0.0187536 -0.00117872 5.38069e-005 -3.18055e-015 -1.59028e-015 4.77083e-015 -2.46017e-006 -1.0996e-006 -1.72475e-006 -0.0122379 -0.00324678 0.000677576 1.27222e-014 -4.77083e-015 -1.59028e-015 -2.46017e-006 -1.0996e-006 -1.72475e-006 -4.92035e-006 -2.19919e-006 -3.4495e-006 -0 0 1.59028e-015 23.7548 9.55719 3.10437 56.5404 -10.1727 30.9353 8.73629 34.5508 -0.368078 41.796 -58.7942 -12.4741 1.7196e-006 1.19023e-006 -2.46443e-006 -2.46443e-006 1.10261e-006 -1.7196e-006 -2.46443e-006 1.10261e-006 -1.7196e-006 1.7196e-006 1.19023e-006 -2.46443e-006 0.0150057 -8.91238e-005 -5.03423e-006 -2.46459e-006 1.10239e-006 -1.71974e-006 1.7196e-006 1.19023e-006 -2.46443e-006 0.0189642 -0.00119637 -6.19891e-005 -2.46465e-006 1.10234e-006 -1.71975e-006 1.7196e-006 1.19023e-006 -2.46443e-006 0.0122688 -0.00325572 -0.000681447 -2.46462e-006 1.10245e-006 -1.71964e-006 1.7196e-006 1.19023e-006 -2.46443e-006 -2.46443e-006 1.10261e-006 -1.7196e-006 -2.46443e-006 1.10261e-006 -1.7196e-006 -21.9131 -20.7467 -48.6301 -66.8934 52.631 54.314 3.86528 14.1632 -11.3598 4.38222e-006 4.28764e-007 2.61365e-006 21.8931 -20.7519 48.6084 66.8468 52.6482 -54.2624 -3.87277 14.1749 11.3453 -1.38007e-007 2.2122e-006 -2.6616e-006 
